# xmcd
#
# Track frame offsets:
#	150
#	12095
#	25595
#	41402
#	56285
#	68880
#	79855
#	92327
#	103732
#	116325
#	129602
#	142390
#	154942
#	167280
#	180110
#	193707
#	207322
#	220587
#	232202
#	244915
#	258502
#	272030
#	285540
#	298892
#	311462
#	325257
#
# Disc length: 4515 seconds
#
# Revision: 1
# Processed by: cddbd v1.5PL3 Copyright (c) Steve Scherf et al.
# Submitted via: audiograbber 1.81.03
#
DISCID=7111a11a
DTITLE=Big Bill Broonzy - Complete Recorded Works in Chronological Order Vol. 1
DYEAR=1927
DGENRE=Blues
TTITLE0=House Rent Stomp
TTITLE1=Big Bill Blues (20373)
TTITLE2=Down in the Basement Blues
TTITLE3=Starvation BLues (20923)
TTITLE4=I can't Be Satisfied (9599)
TTITLE5=Grandma's Farm
TTITLE6=Skoodle Do Do (9601)
TTITLE7=Tadpole Blues
TTITLE8=Skoodle Do Do (16573)
TTITLE9=Saturday Night Rub (9594)
TTITLE10=Pig Meat Strut (9587)
TTITLE11=Papa's Gettin' Hot
TTITLE12=Police Station Blues
TTITLE13=They can't Do That
TTITLE14=State Street Woman
TTITLE15=Meanest Kind of Blues
TTITLE16=I Got the Blues for My Baby
TTITLE17=The Banker's Blues
TTITLE18=How You Wan't Done? (17284)
TTITLE19=Too Too Train BLues (18383)
TTITLE20=Mistreatin' Mamma (18384)
TTITLE21=Big Bill Blues (18385)
TTITLE22=Brown Skin Shuffle
TTITLE23=Stove Pipe Stomp
TTITLE24=Beedle Um Bum
TTITLE25=Selling That Stuff
EXTD=DOCD-5050  November 1927 to 9 February 1932
EXTT0=
EXTT1=
EXTT2=
EXTT3=
EXTT4=
EXTT5=
EXTT6=
EXTT7=
EXTT8=
EXTT9=
EXTT10=
EXTT11=
EXTT12=
EXTT13=
EXTT14=
EXTT15=
EXTT16=
EXTT17=
EXTT18=
EXTT19=
EXTT20=
EXTT21=
EXTT22=
EXTT23=
EXTT24=
EXTT25=
PLAYORDER=
